<?xml version="1.0" encoding="UTF-8"?>
<svg width="15px" height="10px" viewBox="0 0 15 10" version="1.1" xmlns="http://www.w3.org/2000/svg" xmlns:xlink="http://www.w3.org/1999/xlink">
    <!-- Generator: sketchtool 49.3 (51167) - http://www.bohemiancoding.com/sketch -->
    <title>666E2A68-0620-4820-91AA-857BFEC47FE7</title>
    <desc>Created with sketchtool.</desc>
    <defs></defs>
    <g id="Product" stroke="none" stroke-width="1" fill="none" fill-rule="evenodd">
        <g id="marketmaker" transform="translate(-2020.000000, -646.000000)" fill="#2B2C33" fill-rule="nonzero">
            <g id="Group-5-Copy-4" transform="translate(2020.000000, 641.000000)">
                <g id="logs">
                    <path d="M4,15 L4,13.05 L15,13.05 L15,15 L4,15 Z M0,15 L0,13 L2,13 L2,15 L0,15 Z M4,11 L4,9.05 L15,9.05 L15,11 L4,11 Z M0,11 L0,9 L2,9 L2,11 L0,11 Z M4,7 L4,5.05 L15,5.05 L15,7 L4,7 Z M0,7 L0,5 L2,5 L2,7 L0,7 Z" id="bandLogs"></path>
                </g>
            </g>
        </g>
    </g>
</svg>