<?xml version="1.0" encoding="utf-8"?>
<!-- Generator: Adobe Illustrator 21.1.0, SVG Export Plug-In . SVG Version: 6.00 Build 0)  -->
<svg version="1.1" id="Layer_1" xmlns="http://www.w3.org/2000/svg" xmlns:xlink="http://www.w3.org/1999/xlink" x="0px" y="0px"
	 viewBox="0 0 382 74" style="enable-background:new 0 0 382 74;" xml:space="preserve">
<style type="text/css">
	.st0{fill:#9BA0B8;}
	.st1{fill:#B38968;}
	.st2{fill:#B6A269;}
	.st3{fill:#C7CCE0;}
</style>
<title>ERCdEXwithIcon-darkProd</title>
<desc>Created with Sketch.</desc>
<g id="Product">
	<g id="relay" transform="translate(-24.000000, -24.000000)">
		<g id="ERCdEXwithIcon-darkProd" transform="translate(24.639239, 23.867371)">
			<g id="Group" transform="translate(0.004967, 0.108966)">
				<path id="Fill-1" class="st0" d="M51.9,22.6L51.9,22.6c1-0.5,1-1.3,0-1.7L31.4,11l-3.6,1.7l20.5,9.8C49.3,23,50.9,23,51.9,22.6"
					/>
				<path id="Fill-3" class="st0" d="M64.9,16.4c1-0.5,1-1.3,0-1.7L34.3,0.1L5.5,13.8c-2,0.9-2,2.5,0,3.4L34.3,3.5l27,12.9
					C62.2,16.9,63.9,16.9,64.9,16.4"/>
				<path id="Fill-5" class="st0" d="M39,28.7c1-0.5,1-1.3,0-1.7l-20.5-9.8L14.8,19l20.5,9.8C36.3,29.2,38,29.2,39,28.7"/>
				<path id="Fill-7" class="st1" d="M32.2,36.6c0-1.3-0.8-2.7-1.8-3.1L0.1,19v36c0,2.5,1.6,5.2,3.6,6.2V25.3L30.3,38
					C31.3,38.5,32.2,37.9,32.2,36.6"/>
				<path id="Fill-9" class="st2" d="M68.5,21.3c0-1.3-0.8-1.9-1.8-1.4L36.5,34.3v36c0,2.5,1.6,3.7,3.6,2.8l0,0V37.2l26.6-12.7
					C67.7,24,68.5,22.6,68.5,21.3"/>
				<path id="Fill-11" class="st2" d="M68.5,53.7c0-1.3-0.8-1.9-1.8-1.4l-20.2,9.6v4.5l20.2-9.6C67.7,56.4,68.5,55,68.5,53.7"/>
			</g>
		</g>
	</g>
</g>
<g>
	<path class="st3" d="M121.6,35.7l-11.1,28.5h-2.7L96.7,35.6L96,64.1h-2.2l1-31.1h2.9l11.4,29.5L120.6,33h2.9l1,31.1h-2.1
		L121.6,35.7z"/>
	<path class="st3" d="M142.8,61.1c-1.4,1.8-4.1,3.6-7.1,3.6c-4.1,0-7.1-2.4-7.1-6c0-4.2,3.5-7.3,14.1-8c0,0,0-1.8,0-2.1
		c0-3.5-1.7-5.7-5.6-5.7c-2.8,0-5.9,1.6-7.7,2.9l-0.5-2.1c2.1-1.5,5.6-2.8,8.3-2.8c4.3,0,7.4,2.1,7.4,7.4c0,0.3,0,12.4,0,12.4
		c0,1.4,0.3,2.4,2.4,2.4l-0.2,1.6C144.7,64.6,143,63.6,142.8,61.1L142.8,61.1z M142.6,52c-8.9,0.9-12,3-12,6.4
		c0,2.9,2.4,4.4,5.4,4.4c2.9,0,5.3-1.8,6.7-3.5V52z"/>
	<path class="st3" d="M152.9,64.1h-2.1V41.5l2.1-0.6v5.7c1.4-3.4,4-5.7,7-5.7c1.5,0,2.8,0.4,3.7,1l-0.6,1.8
		c-0.8-0.4-1.9-0.9-3.4-0.9c-2.6,0-4.9,1.9-6.8,7.1L152.9,64.1L152.9,64.1z"/>
	<path class="st3" d="M168.3,52.6v11.5h-2.1V30.6l2.1-0.6v22h0.1l11.1-10.6h2.7l-11.6,10.9l11.6,11.8h-2.7L168.3,52.6L168.3,52.6z"
		/>
	<path class="st3" d="M184.9,52.7c0,5.8,3.2,10,8.4,10c2.6,0,4.8-0.9,6.4-1.9l0.4,1.8c-1.8,1.1-4.1,1.9-7,1.9
		c-6.2,0-10.4-4.9-10.4-11.8s4.2-12,10.2-12c4.5,0,7.9,3,7.9,7.9c0,1.1-0.3,2.6-0.5,3.6l-15.6,0.1L184.9,52.7L184.9,52.7z
		 M198.7,50.5c0.1-0.5,0.2-1.1,0.2-1.7c0-3.6-2.2-6.1-5.9-6.1c-4.2,0-7.3,3.2-7.9,7.9H198.7z"/>
	<path class="st3" d="M211.8,64.9c-4.2,0-5.8-2.7-5.6-7.3l0.4-14.2l-3.1-0.2l0.2-1.3l3-0.4l0.2-5.4h2l-0.2,5.4h8.1l-0.2,1.7h-8
		l-0.4,14.3c-0.1,3.7,1,5.4,3.7,5.4c1.6,0,3.2-0.6,4.7-1.4l0.4,1.7C215.3,64.4,213.4,64.9,211.8,64.9z"/>
	<path class="st2" d="M257.9,35.7l-11.1,28.5h-2.7L233,35.6l-0.7,28.5h-2.2l1-31.1h2.9l11.4,29.5L256.9,33h2.9l1,31.1h-2.1
		L257.9,35.7z"/>
	<path class="st2" d="M279.1,61.1c-1.4,1.8-4.1,3.6-7.1,3.6c-4.1,0-7.1-2.4-7.1-6c0-4.2,3.5-7.3,14.1-8c0,0,0-1.8,0-2.1
		c0-3.5-1.7-5.7-5.6-5.7c-2.8,0-5.9,1.6-7.7,2.9l-0.5-2.1c2.1-1.5,5.6-2.8,8.3-2.8c4.3,0,7.4,2.1,7.4,7.4c0,0.3,0,12.4,0,12.4
		c0,1.4,0.3,2.4,2.4,2.4l-0.2,1.6C280.9,64.6,279.3,63.6,279.1,61.1L279.1,61.1z M278.9,52c-8.9,0.9-12,3-12,6.4
		c0,2.9,2.4,4.4,5.4,4.4c2.9,0,5.3-1.8,6.7-3.5V52L278.9,52z"/>
	<path class="st2" d="M289.2,52.6v11.5h-2.1V30.6l2.1-0.6v22h0.1l11.1-10.6h2.7l-11.6,10.9L303,64.1h-2.7L289.2,52.6L289.2,52.6z"/>
	<path class="st2" d="M305.8,52.7c0,5.8,3.2,10,8.4,10c2.6,0,4.8-0.9,6.4-1.9l0.4,1.8c-1.8,1.1-4.1,1.9-7,1.9
		c-6.2,0-10.4-4.9-10.4-11.8s4.2-12,10.2-12c4.5,0,7.9,3,7.9,7.9c0,1.1-0.3,2.6-0.5,3.6l-15.6,0.1L305.8,52.7L305.8,52.7z
		 M319.5,50.5c0.1-0.5,0.2-1.1,0.2-1.7c0-3.6-2.2-6.1-5.9-6.1c-4.2,0-7.3,3.2-7.9,7.9H319.5z"/>
	<path class="st2" d="M329.1,64.1H327V41.5l2.1-0.6v5.7c1.4-3.4,4-5.7,7-5.7c1.5,0,2.8,0.4,3.7,1l-0.6,1.8c-0.8-0.4-1.9-0.9-3.4-0.9
		c-2.6,0-4.9,1.9-6.8,7.1L329.1,64.1L329.1,64.1z"/>
</g>
<g id="Group-2" transform="translate(94.660897, 18.162734)">
	<polygon id="Fill-13" class="st3" points="-0.7,-11.7 -0.7,5.9 9.4,5.9 9.4,4.9 0.5,4.9 0.5,-2.4 7.9,-2.4 7.9,-3.4 0.5,-3.4 
		0.5,-10.6 9.4,-10.6 9.4,-11.7 	"/>
	<path id="Fill-15" class="st3" d="M14.3,5.9h-1.2v-17.6h4.2c4.4,0,6.3,2,6.3,5c0,2.7-2.1,4.2-4.2,4.8l5,7.8h-1.3l-4.8-7.6l-4,0.3
		V5.9z M17.7-2.6c2.4-0.1,4.7-1.6,4.7-4.1c0-2.5-1.7-3.9-5.2-3.9h-2.8v8.1L17.7-2.6z"/>
	<path id="Fill-17" class="st3" d="M39.1-9.5c-1.2-0.8-3.1-1.4-5-1.4c-3.8,0-6.9,2.8-6.9,8.1c0,5,2.8,8,7,8c1.9,0,3.7-0.6,4.9-1.4
		l0.3,1.1c-1.2,0.8-3,1.4-5.2,1.4c-5,0-8.1-3.5-8.1-9.1c0-5.6,3.4-9.1,8.2-9.1c2.3,0,4.1,0.7,5.3,1.4L39.1-9.5z"/>
	<path id="Fill-19" class="st2" d="M58.1-12.1l1.2-0.4V5.9h-1.2V4.7c-0.8,0.7-2.2,1.5-3.9,1.5c-3.3,0-5.8-2.5-5.8-6.3
		c0-4,2.6-6.6,6.2-6.6c1.3,0,2.6,0.4,3.5,1V-12.1z M54.5-5.6c-2.9,0-4.9,2.2-4.9,5.6c0,3,1.9,5.3,4.7,5.3c1.4,0,2.8-0.7,3.8-1.6
		v-8.2C57.2-5.2,55.8-5.6,54.5-5.6z"/>
	<polygon id="Fill-21" class="st3" points="63.6,5.9 63.6,-11.7 73.7,-11.7 73.7,-10.6 64.8,-10.6 64.8,-3.4 72.2,-3.4 72.2,-2.4 
		64.8,-2.4 64.8,4.9 73.7,4.9 73.7,5.9 	"/>
	<polygon id="Fill-23" class="st3" points="77.4,5.9 76,5.9 82.7,-3.1 76.5,-11.7 77.9,-11.7 83.4,-3.9 88.9,-11.7 90.3,-11.7 
		84.1,-3.2 90.7,5.9 89.3,5.9 83.4,-2.4 	"/>
</g>
</svg>
