<?xml version="1.0" encoding="UTF-8"?>
<svg width="283px" height="74px" viewBox="0 0 283 74" version="1.1" xmlns="http://www.w3.org/2000/svg" xmlns:xlink="http://www.w3.org/1999/xlink">
    <!-- Generator: Sketch 49.3 (51167) - http://www.bohemiancoding.com/sketch -->
    <title>ERCdEXwithIcon-lightProd</title>
    <desc>Created with Sketch.</desc>
    <defs></defs>
    <g id="Product" stroke="none" stroke-width="1" fill="none" fill-rule="evenodd">
        <g id="relay" transform="translate(-24.000000, -24.000000)">
            <g id="ERCdEXwithIcon-lightProd" transform="translate(24.658481, 23.872469)">
                <g id="Group" transform="translate(0.004967, 0.108960)">
                    <path d="M51.922232,22.5569032 L51.9224499,22.5569032 C52.9259707,22.0776975 52.9259707,21.3010312 51.9224499,20.8218255 L31.4246929,11.0380969 L27.7897902,12.7731746 L48.2873292,22.5569032 C49.2912859,23.035891 50.9187111,23.035891 51.922232,22.5569032" id="Fill-1" fill="#9BA0B8"></path>
                    <path d="M64.8720741,16.3757598 C65.875595,15.896772 65.875595,15.1198878 64.8720741,14.6409001 L34.315138,0.0555259722 L5.52531365,13.7973324 C3.54572994,14.7422328 3.54572994,16.2742092 5.52531365,17.2191095 L34.2645806,3.50149221 L61.2371714,16.3757598 C62.2409101,16.8549655 63.8683354,16.8549655 64.8720741,16.3757598" id="Fill-3" fill="#9BA0B8"></path>
                    <path d="M38.9725859,28.7379376 C39.9763246,28.2587319 39.9763246,27.4820656 38.9725859,27.0030778 L18.4750469,17.2191313 L14.8401442,18.954209 L35.3376832,28.7379376 C36.3414219,29.2171433 37.9688472,29.2171433 38.9725859,28.7379376" id="Fill-5" fill="#9BA0B8"></path>
                    <path d="M32.1586687,36.6014438 C32.1586687,35.3466615 31.3456098,33.9412965 30.342307,33.4627446 L0.12968409,19.0453867 L0.12968409,55.0363717 C0.12968409,57.5110692 1.73357402,60.2825736 3.71206814,61.2268202 L3.71206814,25.298814 L30.342307,38.0068088 C31.3456098,38.4855787 32.1586687,37.8562262 32.1586687,36.6014438" id="Fill-7" fill="#B38968"></path>
                    <path d="M68.5007226,21.3173752 C68.5007226,20.0625928 67.6874458,19.4334583 66.6841429,19.9120102 L36.47152,34.3293681 L36.47152,70.3205711 C36.47152,72.7952686 38.0756279,74.0358862 40.0539041,73.0918575 L40.054122,73.0918575 L40.054122,37.1640692 L66.6841429,24.4560745 C67.6874458,23.9775225 68.5007226,22.5721576 68.5007226,21.3173752" id="Fill-9" fill="#B6A269"></path>
                    <path d="M68.5007226,53.6950751 C68.5007226,52.4400748 67.6874458,51.8109403 66.6841429,52.2897102 L46.5250334,61.909563 L46.5250334,66.4536273 L66.6841429,56.8337744 C67.6874458,56.3552225 68.5007226,54.9498575 68.5007226,53.6950751" id="Fill-11" fill="#B6A269"></path>
                </g>
                <g id="Group-2" transform="translate(94.656038, 18.161802)">
                    <polygon id="Fill-13" fill="#C7CCE0" points="0.0085513068 1.64920839 0.0085513068 37.7445277 20.684468 37.7445277 20.684468 35.5488461 2.43369336 35.5488461 2.43369336 20.7651339 17.6804057 20.7651339 17.6804057 18.6289421 2.43369336 18.6289421 2.43369336 3.84353022 20.684468 3.84353022 20.684468 1.64920839"></polygon>
                    <path d="M30.7316065,37.7444257 L28.3064644,37.7444257 L28.3064644,1.64842653 L36.8536114,1.64842653 C45.8634187,1.64842653 49.789742,5.69202965 49.789742,11.8711447 C49.789742,17.3000091 45.5741285,20.5342117 41.1276948,21.7464428 L51.4075232,37.7444257 L48.6920712,37.7444257 L38.9323532,22.2084232 L30.7316065,22.7288735 L30.7316065,37.7444257 Z M37.7201221,20.3030516 C42.5710861,20.1300214 47.3068099,17.068849 47.3068099,11.9285948 C47.3068099,6.78868065 43.726207,3.84376818 36.5643213,3.84376818 L30.7316065,3.84376818 L30.7316065,20.5342117 L37.7201221,20.3030516 Z" id="Fill-15" fill="#C7CCE0"></path>
                    <path d="M81.3793758,6.03856593 C78.8383138,4.42078474 75.0268906,3.26600375 71.2147876,3.26600375 C63.3607812,3.26600375 57.065746,9.09871854 57.065746,19.7834171 C57.065746,29.9476654 62.7250907,36.1271205 71.3307076,36.1271205 C75.2573709,36.1271205 78.8954239,34.9138695 81.3215858,33.1811882 L81.8991462,35.4339799 C79.4733243,37.0514212 75.6622411,38.3217822 71.2729176,38.3217822 C60.9930892,38.3217822 54.582474,31.1605764 54.582474,19.7834171 C54.582474,8.34846784 61.6280998,1.07168192 71.3307076,1.07168192 C76.0086414,1.07168192 79.8200646,2.57320315 82.1299665,3.9591443 L81.3793758,6.03856593 Z" id="Fill-17" fill="#C7CCE0"></path>
                    <path d="M120.303994,0.836204504 L122.671346,0.112469233 L122.671346,37.7647202 L120.303994,37.7647202 L120.303994,35.2569724 C118.686552,36.7054628 115.74164,38.3212043 112.334407,38.3212043 C105.518922,38.3212043 100.436797,33.1952277 100.436797,25.3932323 C100.436797,17.2580943 105.807532,11.9645266 113.142448,11.9645266 C115.74164,11.9645266 118.513182,12.8555131 120.303994,13.9151105 L120.303994,0.836204504 Z M112.969418,14.0262713 C107.020443,14.0262713 102.862619,18.5400134 102.862619,25.3932323 C102.862619,31.5788063 106.673703,36.3158899 112.507097,36.3158899 C115.45235,36.3158899 118.340152,34.8663797 120.303994,33.0279766 L120.303994,16.1437664 C118.629442,14.9172578 115.68351,14.0262713 112.969418,14.0262713 Z" id="Fill-19" fill="#B6A269"></path>
                    <polygon id="Fill-21" fill="#C7CCE0" points="131.622309 37.7440858 131.622309 1.64876647 152.298226 1.64876647 152.298226 3.84342824 134.048471 3.84342824 134.048471 18.6281602 149.294503 18.6281602 149.294503 20.764692 134.048471 20.764692 134.048471 35.549764 152.298226 35.549764 152.298226 37.7440858"></polygon>
                    <polygon id="Fill-23" fill="#C7CCE0" points="159.978862 37.7440858 157.14919 37.7440858 170.720671 19.1479307 158.1306 1.64876647 160.902483 1.64876647 172.222192 17.6464094 183.541221 1.64876647 186.314123 1.64876647 173.608133 19.0898007 187.179614 37.7440858 184.349602 37.7440858 172.106612 20.5920018"></polygon>
                </g>
            </g>
        </g>
    </g>
</svg>