<?xml version="1.0" encoding="UTF-8"?>
<svg width="283px" height="74px" viewBox="0 0 283 74" version="1.1" xmlns="http://www.w3.org/2000/svg" xmlns:xlink="http://www.w3.org/1999/xlink">
    <!-- Generator: Sketch 49.3 (51167) - http://www.bohemiancoding.com/sketch -->
    <title>ERCdEXwithIcon-darkProd</title>
    <desc>Created with Sketch.</desc>
    <defs></defs>
    <g id="Product" stroke="none" stroke-width="1" fill="none" fill-rule="evenodd">
        <g id="relay" transform="translate(-24.000000, -24.000000)">
            <g id="ERCdEXwithIcon-darkProd" transform="translate(24.639239, 23.867371)">
                <g id="Group" transform="translate(0.004967, 0.108966)">
                    <path d="M51.9248973,22.5580611 L51.9251152,22.5580611 C52.9286876,22.0788308 52.9286876,21.3021247 51.9251152,20.8228944 L31.4263061,11.0386635 L27.7912168,12.7738303 L48.289808,22.5580611 C49.2938162,23.0370735 50.921325,23.0370735 51.9248973,22.5580611" id="Fill-1" fill="#9BA0B8"></path>
                    <path d="M64.8754043,16.3766004 C65.8789766,15.8975881 65.8789766,15.120664 64.8754043,14.6416516 L34.3168995,0.0555288225 L5.52559729,13.7980407 C3.54591195,14.7429895 3.54591195,16.2750446 5.52559729,17.2199935 L34.2663395,3.50167195 L61.2403149,16.3766004 C62.2441052,16.8558307 63.871614,16.8558307 64.8754043,16.3766004" id="Fill-3" fill="#9BA0B8"></path>
                    <path d="M38.9745865,28.7394128 C39.9783767,28.2601825 39.9783767,27.4834764 38.9745865,27.004464 L18.4759953,17.2200152 L14.8409059,18.955182 L35.3394972,28.7394128 C36.3432874,29.2186431 37.9707962,29.2186431 38.9745865,28.7394128" id="Fill-5" fill="#9BA0B8"></path>
                    <path d="M32.1603195,36.6033227 C32.1603195,35.3484759 31.3472189,33.9430388 30.3438645,33.4644623 L0.129690747,19.0463643 L0.129690747,55.0391969 C0.129690747,57.5140215 1.73366301,60.2856681 3.71225869,61.2299632 L3.71225869,25.3001127 L30.3438645,38.0087598 C31.3472189,38.4875543 32.1603195,37.8581695 32.1603195,36.6033227" id="Fill-7" fill="#B38968"></path>
                    <path d="M68.504239,21.3184695 C68.504239,20.0636227 67.6909204,19.4344559 66.687566,19.9130324 L36.4733922,34.3311304 L36.4733922,70.3241809 C36.4733922,72.7990055 38.0775824,74.0396867 40.0559602,73.0956096 L40.0561781,73.0956096 L40.0561781,37.165977 L66.687566,24.4573299 C67.6909204,23.9787534 68.504239,22.5733163 68.504239,21.3184695" id="Fill-9" fill="#B6A269"></path>
                    <path d="M68.504239,53.6978315 C68.504239,52.4427668 67.6909204,51.8135999 66.687566,52.2923944 L46.5274217,61.9127411 L46.5274217,66.4570386 L66.687566,56.8366919 C67.6909204,56.3581154 68.504239,54.9526783 68.504239,53.6978315" id="Fill-11" fill="#B6A269"></path>
                </g>
                <g id="Group-2" transform="translate(94.660897, 18.162734)">
                    <polygon id="Fill-13" fill="#9A9FB7" points="0.00855174577 1.64929305 0.00855174577 37.7464653 20.6855298 37.7464653 20.6855298 35.550671 2.43381829 35.550671 2.43381829 20.7661999 17.6813133 20.7661999 17.6813133 18.6298984 2.43381829 18.6298984 2.43381829 3.84372752 20.6855298 3.84372752 20.6855298 1.64929305"></polygon>
                    <path d="M30.733184,37.7463633 L28.3079175,37.7463633 L28.3079175,1.64851114 L36.8555032,1.64851114 C45.865773,1.64851114 49.7922979,5.69232184 49.7922979,11.8717541 C49.7922979,17.3008972 45.576468,20.5352658 41.129806,21.7475591 L51.4101621,37.7463633 L48.6945707,37.7463633 L38.9343517,22.2095632 L30.733184,22.7300403 L30.733184,37.7463633 Z M37.7220584,20.3040938 C42.5732714,20.1310547 47.3092383,17.0697252 47.3092383,11.9292072 C47.3092383,6.78902914 43.7284516,3.84396549 36.5661982,3.84396549 L30.733184,3.84396549 L30.733184,20.5352658 L37.7220584,20.3040938 Z" id="Fill-15" fill="#9A9FB7"></path>
                    <path d="M81.3835533,6.03887591 C78.8423608,4.42101167 75.030742,3.26617141 71.2184433,3.26617141 C63.3640337,3.26617141 57.0686754,9.09918561 57.0686754,19.7844327 C57.0686754,29.9492027 62.7283106,36.128975 71.3343693,36.128975 C75.2612341,36.128975 78.8994739,34.9156618 81.3257603,33.1828915 L81.9033504,35.4357989 C79.477404,37.0533231 75.6661251,38.3237494 71.2765763,38.3237494 C60.9962202,38.3237494 54.5852759,31.162176 54.5852759,19.7844327 C54.5852759,8.34889639 61.6312634,1.07173693 71.3343693,1.07173693 C76.0125432,1.07173693 79.824162,2.57333524 82.1341825,3.95934753 L81.3835533,6.03887591 Z" id="Fill-17" fill="#9A9FB7"></path>
                    <path d="M120.310169,0.836247429 L122.677643,0.112475006 L122.677643,37.7666588 L120.310169,37.7666588 L120.310169,35.2587823 C118.692645,36.707347 115.747581,38.3231715 112.340174,38.3231715 C105.524338,38.3231715 100.441953,33.1969318 100.441953,25.3945359 C100.441953,17.2589803 105.812963,11.9651408 113.148256,11.9651408 C115.747581,11.9651408 118.519266,12.856173 120.310169,13.9158248 L120.310169,0.836247429 Z M112.975217,14.0269913 C107.025937,14.0269913 102.8679,18.5409651 102.8679,25.3945359 C102.8679,31.5804274 106.679179,36.3177541 112.512873,36.3177541 C115.458276,36.3177541 118.346227,34.8681695 120.310169,33.029672 L120.310169,16.1445951 C118.635532,14.9180235 115.689448,14.0269913 112.975217,14.0269913 Z" id="Fill-19" fill="#B6A269"></path>
                    <polygon id="Fill-21" fill="#9A9FB7" points="131.629066 37.7460233 131.629066 1.6488511 152.306044 1.6488511 152.306044 3.84362553 134.055352 3.84362553 134.055352 18.6291165 149.302167 18.6291165 149.302167 20.7657579 134.055352 20.7657579 134.055352 35.5515888 152.306044 35.5515888 152.306044 37.7460233"></polygon>
                    <polygon id="Fill-23" fill="#9A9FB7" points="159.987074 37.7460233 157.157257 37.7460233 170.729434 19.1489136 158.138718 1.6488511 160.910742 1.6488511 172.231033 17.6473153 183.550643 1.6488511 186.323687 1.6488511 173.617045 19.0907806 187.189223 37.7460233 184.359065 37.7460233 172.115447 20.5930588"></polygon>
                </g>
            </g>
        </g>
    </g>
</svg>