<?xml version="1.0" encoding="UTF-8"?>
<svg width="22px" height="28px" viewBox="0 0 22 28" version="1.1" xmlns="http://www.w3.org/2000/svg" xmlns:xlink="http://www.w3.org/1999/xlink">
    <!-- Generator: sketchtool 49.3 (51167) - http://www.bohemiancoding.com/sketch -->
    <title>0D2E81C1-8F7F-4278-ACA6-2276053DA449</title>
    <desc>Created with sketchtool.</desc>
    <defs></defs>
    <g id="Product" stroke="none" stroke-width="1" fill="none" fill-rule="evenodd">
        <g id="marketmaker" transform="translate(-1399.000000, -129.000000)" fill="#9CA1B9" fill-rule="nonzero">
            <g id="button_buy-copy-6" transform="translate(1388.000000, 120.000000)">
                <path d="M31,13 L27.2378835,13 L27.2378835,11 L33,11 L33,37 L11,37 L11,11 L16.9073122,11 L16.9073122,13 L13,13 L13,35 L31,35 L31,13 Z M18,11 L18,13 L26,13 L26,11 L18,11 Z M28,9 L28,15 L16,15 L16,9 L28,9 Z M17,32.2612665 L15,32.2612665 L15,28.5000151 L17,28.5000151 L17,32.2612665 Z M15,32.2612665 L15,28.5000151 L17,28.5000151 L17,32.2612665 L15,32.2612665 Z M21,32.2612665 L19,32.2612665 L19,24.9693733 L21,24.9693733 L21,32.2612665 Z M19,32.2612665 L19,24.9693733 L21,24.9693733 L21,32.2612665 L19,32.2612665 Z M25,32.2612665 L23,32.2612665 L23,22.3213919 L25,22.3213919 L25,32.2612665 Z M23,32.2612665 L23,22.3213919 L25,22.3213919 L25,32.2612665 L23,32.2612665 Z M29,32.2612665 L27,32.2612665 L27,18.7907501 L29,18.7907501 L29,32.2612665 Z M27,32.2612665 L27,18.7907501 L29,18.7907501 L29,32.2612665 L27,32.2612665 Z" id="reports"></path>
            </g>
        </g>
    </g>
</svg>