<?xml version="1.0" encoding="UTF-8"?>
<svg width="21px" height="16px" viewBox="0 0 21 16" version="1.1" xmlns="http://www.w3.org/2000/svg" xmlns:xlink="http://www.w3.org/1999/xlink">
    <!-- Generator: sketchtool 49.3 (51167) - http://www.bohemiancoding.com/sketch -->
    <title>23061553-11E1-4989-9033-D1877EE44731</title>
    <desc>Created with sketchtool.</desc>
    <defs></defs>
    <g id="Product" stroke="none" stroke-width="1" fill="none" fill-rule="evenodd">
        <g id="marketmaker" transform="translate(-1263.000000, -133.000000)" fill="#9CA1B9" fill-rule="nonzero">
            <g id="button_buy-copy-4" transform="translate(1251.000000, 117.000000)">
                <path d="M16,18 L16,16 L33,16 L33,18 L16,18 Z M12.162945,18 L12.162945,16 L14.1007594,16 L14.1007594,18 L12.162945,18 Z M16,25 L16,23 L33,23 L33,25 L16,25 Z M12.162945,25 L12.162945,23 L14.1007594,23 L14.1007594,25 L12.162945,25 Z M16,32 L16,30 L33,30 L33,32 L16,32 Z M12.162945,32 L12.162945,30 L14.1007594,30 L14.1007594,32 L12.162945,32 Z" id="toolLogs"></path>
            </g>
        </g>
    </g>
</svg>