<?xml version="1.0" encoding="UTF-8"?>
<svg width="22px" height="25px" viewBox="0 0 22 25" version="1.1" xmlns="http://www.w3.org/2000/svg" xmlns:xlink="http://www.w3.org/1999/xlink">
    <!-- Generator: sketchtool 49.3 (51167) - http://www.bohemiancoding.com/sketch -->
    <title>90712D2F-4584-4B65-A91D-FFA045274667</title>
    <desc>Created with sketchtool.</desc>
    <defs></defs>
    <g id="Product" stroke="none" stroke-width="1" fill="none" fill-rule="evenodd">
        <g id="marketmaker" transform="translate(-2053.000000, -130.000000)" fill="#FFFFFF" fill-rule="nonzero">
            <g id="button_buy-copy-5" transform="translate(2040.000000, 119.000000)">
                <path d="M20.7274812,11 C19.6682608,11 18.7896,11.8786602 18.7896,12.9378812 L18.7896,13.7684017 C14.9298667,13.7684017 13,13.7684017 13,13.7684017 C13,13.7684017 13,14.322082 13,15.4294427 L31.230105,15.4294427 L30.6937272,33.9517801 C30.6880215,34.1486135 30.5843964,34.2545741 30.416887,34.2545741 L17.128559,34.2545741 C16.9610497,34.2545741 16.857424,34.1486135 16.8517188,33.9517801 L16.3522722,15.4294427 L14.6803175,15.4294427 L15.1906778,33.9950364 C15.2205245,35.0246881 16.0691138,35.9156151 17.128559,35.9156151 L30.416887,35.9156151 C31.4763322,35.9156151 32.3249215,35.0246881 32.3547682,33.9950364 L32.891146,15.4294427 C33.8386499,15.4294427 34.3124018,15.4294427 34.3124018,15.4294427 C34.3124018,15.4294427 34.3124018,14.8757623 34.3124018,13.7684017 L28.755846,13.7684017 L28.755846,12.9378812 C28.755846,11.8786602 27.8771852,11 26.8179649,11 L20.7274812,11 Z M20.7274812,12.661041 L26.8179649,12.661041 C26.985699,12.661041 27.094805,12.7701465 27.094805,12.9378812 L27.094805,13.7684017 L20.450641,13.7684017 L20.450641,12.9378812 C20.450641,12.7701465 20.559747,12.661041 20.7274812,12.661041 Z M19.8883094,18.1805418 C19.666522,18.1828263 19.4548607,18.2737208 19.3004815,18.4329752 C19.1461023,18.5922295 19.0618302,18.8066136 19.0664402,19.0283649 L19.0664402,30.6556519 C19.0622043,30.9551674 19.2195676,31.2337617 19.4782727,31.3847557 C19.7369778,31.5357496 20.0569435,31.5357496 20.3156486,31.3847557 C20.5743537,31.2337617 20.7317171,30.9551674 20.7274812,30.6556519 L20.7274812,19.0283649 C20.732154,18.8036128 20.6455274,18.5865646 20.4873867,18.4267935 C20.3292459,18.2670224 20.1130976,18.1781743 19.8883094,18.1805418 Z M23.7640718,18.1805418 C23.5422843,18.1828263 23.3306231,18.2737208 23.1762439,18.4329752 C23.0218647,18.5922295 22.9375926,18.8066136 22.9422025,19.0283649 L22.9422025,30.6556519 C22.9379666,30.9551674 23.09533,31.2337617 23.3540351,31.3847557 C23.6127402,31.5357496 23.9327059,31.5357496 24.191411,31.3847557 C24.4501161,31.2337617 24.6074794,30.9551674 24.6032435,30.6556519 L24.6032435,19.0283649 C24.6079164,18.8036128 24.5212898,18.5865646 24.363149,18.4267935 C24.2050082,18.2670224 23.9888599,18.1781743 23.7640718,18.1805418 Z M27.6398341,18.1805418 C27.4180467,18.1828263 27.2063854,18.2737208 27.0520062,18.4329752 C26.897627,18.5922295 26.8133549,18.8066136 26.8179649,19.0283649 L26.8179649,30.6556519 C26.813729,30.9551674 26.9710923,31.2337617 27.2297974,31.3847557 C27.4885025,31.5357496 27.8084682,31.5357496 28.0671733,31.3847557 C28.3258784,31.2337617 28.4832418,30.9551674 28.4790059,30.6556519 L28.4790059,19.0283649 C28.4836787,18.8036128 28.3970521,18.5865646 28.2389114,18.4267935 C28.0807706,18.2670224 27.8646223,18.1781743 27.6398341,18.1805418 Z" id="toolDelete"></path>
            </g>
        </g>
    </g>
</svg>
