<?xml version="1.0" encoding="UTF-8"?>
<svg width="26px" height="27px" viewBox="0 0 26 27" version="1.1" xmlns="http://www.w3.org/2000/svg" xmlns:xlink="http://www.w3.org/1999/xlink">
    <!-- Generator: sketchtool 49.3 (51167) - http://www.bohemiancoding.com/sketch -->
    <title>E93D405C-6803-41E0-B31A-C36B102990F2</title>
    <desc>Created with sketchtool.</desc>
    <defs></defs>
    <g id="Product" stroke="none" stroke-width="1" fill="none" fill-rule="evenodd">
        <g id="marketmaker" transform="translate(-1096.000000, -131.000000)" fill="#9CA1B9" fill-rule="nonzero">
            <g id="button_buy-copy" transform="translate(1083.000000, 120.000000)">
                <path d="M16.492054,18 L22,18 L22,20 L13,20 L13,11 L15,11 L15,16.6603614 C16.7364366,14.4471005 19.1603256,12.8207201 21.9729805,12.0670715 C28.9762936,10.1905395 36.1636338,14.287756 38.0225168,21.2252016 C39.8813997,28.1626472 35.7055887,35.3046109 28.7022757,37.181143 C23.8412552,38.4836495 18.7402366,36.9224697 15.476063,33.2608247 L16.9689815,31.9299624 C19.7336485,35.0312771 24.0584611,36.354897 28.1846376,35.2492914 C34.1257335,33.6573795 37.6623857,27.6085805 36.0906651,21.7428397 C34.5189446,15.8770988 28.4317145,12.4070113 22.4906186,13.9989232 C20.0573165,14.6509245 17.9698657,16.0693824 16.492054,18 Z M24.4528773,17.042673 L26.4528773,17.042673 L26.4528773,26.1177995 L22.1529273,29.8793232 L20.836103,28.374008 L24.4528773,25.2101149 L24.4528773,17.042673 Z" id="toolsHistory"></path>
            </g>
        </g>
    </g>
</svg>